#N canvas 20 45 583 536 10;
#X obj 80 351 jack_patch;
#N canvas 51 246 507 361 META 0;
#X text 12 5 KEYWORDS control jack;
#X text 12 25 LICENSE GPL v2;
#X text 12 45 DESCRIPTION manage Jack connections;
#X text 12 65 WEBSITE http://puredata.info/downloads/jackx/;
#X text 12 85 INLET_0 symbol bang;
#X text 12 105 INLET_1 symbol;
#X text 12 125 INLET_2 symbol;
#X text 12 145 INLET_3 symbol;
#X text 12 165 INLET_4 symbol;
#X text 12 185 OUTLET_0 float;
#X text 12 205 AUTHOR Gerard van Dongen;
#X text 12 225 RELEASE_DATE 2003;
#X restore 519 502 pd META;
#X obj 80 476 print jp_connected;
#X obj 108 447 print jp_outputs;
#X msg 96 114 connect bli bla blu blo;
#X msg 103 140 disconnect bli bla blu blo;
#X msg 113 160 query bli bla blu blo;
#X msg 144 231 query eins zwei drei;
#X msg 58 82 query mpv out_0 system playback_1;
#X msg 33 49 connect mpv out_0 system playback_1;
#X msg 17 16 disconnect mpv out_0 system playback_1;
#X msg 146 182 connect;
#X msg 142 210 disconnect;
#X obj 17 257 s \$0.to-jack_patch;
#X obj 80 322 r \$0.to-jack_patch;
#X obj 348 274 s \$0.to-jack_patch;
#X msg 328 12 bang;
#X msg 381 13 virtual input .*;
#X msg 397 41 physical input .*;
#X msg 400 69 virtual output .*;
#X msg 409 100 physical output .*;
#X obj 137 419 print jp_inputs;
#X msg 372 204 get_connections mpv out_1;
#X msg 378 238 get_connections system playback_1;
#X connect 0 0 2 0;
#X connect 0 1 3 0;
#X connect 0 2 21 0;
#X connect 4 0 13 0;
#X connect 5 0 13 0;
#X connect 6 0 13 0;
#X connect 7 0 13 0;
#X connect 8 0 13 0;
#X connect 9 0 13 0;
#X connect 10 0 13 0;
#X connect 11 0 13 0;
#X connect 12 0 13 0;
#X connect 14 0 0 0;
#X connect 16 0 15 0;
#X connect 17 0 15 0;
#X connect 18 0 15 0;
#X connect 19 0 15 0;
#X connect 20 0 15 0;
#X connect 22 0 15 0;
#X connect 23 0 15 0;
